<svg width="100" height="40" viewBox="0 0 191 64" fill="none" xmlns="http://www.w3.org/2000/svg"><path fill-rule="evenodd" clip-rule="evenodd" d="M24.8942 3.80638C13.1978 3.80638 3.71596 13.5189 3.71596 25.5C3.71596 35.5201 10.3487 43.9561 19.3632 46.4467L20.413 46.6895L20.1872 50.6184L18.3947 50.1236C7.79991 47.1936 0 37.2822 0 25.5C0 11.4168 11.1456 0 24.8942 0C38.6428 0 49.7885 11.4168 49.7885 25.5C49.7885 39.5832 38.6428 51 24.8942 51H23.0363V15.3782H26.7522V47.1127C37.5795 46.1484 46.0725 36.8405 46.0725 25.5023C46.0725 13.5189 36.5907 3.80638 24.8942 3.80638Z" fill="white"></path><path d="M86.1536 5.36039C85.1923 3.65934 83.8692 2.32062 82.214 1.39403C80.5695 0.467444 78.7199 0 76.7136 0C74.7073 0 72.8523 0.467444 71.197 1.39403C69.531 2.32062 68.2025 3.6621 67.2412 5.36039C66.2745 7.0725 65.7885 9.07228 65.7885 11.3016C65.7885 13.5365 66.2772 15.5363 67.2412 17.2484C68.2079 18.955 69.5364 20.2882 71.197 21.2092C72.8577 22.1358 74.7127 22.6088 76.7136 22.6088C78.7145 22.6088 80.5641 22.1358 82.214 21.2092C83.8638 20.2882 85.1869 18.9522 86.1536 17.2484C87.1203 15.5363 87.6063 13.5365 87.6063 11.3016C87.609 9.07228 87.1203 7.0725 86.1536 5.36039ZM82.8026 15.3178C82.1897 16.4961 81.3391 17.4226 80.2752 18.0782C79.2113 18.7392 78.0178 19.0739 76.7163 19.0739C75.4148 19.0739 74.2213 18.7392 73.1574 18.0782C72.0935 17.4226 71.2375 16.4933 70.6138 15.3178C69.99 14.1561 69.6741 12.8063 69.6741 11.3016C69.6741 9.80248 69.99 8.44994 70.6138 7.28548C71.2375 6.11272 72.0935 5.18613 73.1574 4.52507C74.2267 3.86402 75.4256 3.52934 76.7163 3.52934C78.007 3.52934 79.2059 3.86402 80.2752 4.52507C81.3445 5.18613 82.1897 6.12655 82.8026 7.30761C83.4156 8.4859 83.7261 9.83014 83.7261 11.3016C83.7234 12.8008 83.4156 14.1533 82.8026 15.3178Z" fill="white"></path><path d="M106.079 11.368V22.2713H102.331V12.9418C102.331 11.4482 101.993 10.3197 101.332 9.5978C100.67 8.87589 99.7736 8.50802 98.6746 8.50802C97.5243 8.50802 96.5873 8.90355 95.8907 9.68631C95.1913 10.4691 94.8484 11.6474 94.8484 13.282V22.2713H91.1005V5.7891H94.365L94.654 9.20227L95.0833 8.44717C95.7071 7.36292 96.4496 6.5857 97.3083 6.13485C98.1751 5.67847 99.1634 5.45166 100.249 5.45166C101.958 5.45166 103.378 5.96889 104.459 6.99505C105.531 8.01292 106.079 9.4844 106.079 11.368Z" fill="white"></path><path d="M103.26 39.9654C103.26 38.4828 102.906 37.1247 102.206 35.9382C101.518 34.7488 100.551 33.8056 99.3469 33.1252C98.1426 32.4475 96.7871 32.1018 95.3155 32.1018C93.8033 32.1018 92.4127 32.4586 91.1922 33.1584C89.9663 33.8582 88.9834 34.8594 88.2733 36.1373C87.5631 37.4152 87.204 38.9198 87.204 40.6098C87.204 42.3054 87.5739 43.8321 88.3003 45.1377C89.0158 46.4543 90.0149 47.4832 91.257 48.1885C92.5153 48.8993 93.9249 49.2617 95.4505 49.2617C98.4883 49.2617 100.897 48.1111 102.612 45.843L100.181 44.0092C99.725 44.6758 99.112 45.1985 98.3478 45.5664C97.5135 45.9675 96.6116 46.1721 95.6854 46.1721C94.7295 46.1721 93.8682 45.9619 93.1094 45.5443C92.356 45.1211 91.7593 44.5707 91.3191 43.9041C90.8844 43.2264 90.6414 42.5045 90.5874 41.7549L90.5658 41.4617H103.162C103.227 40.9279 103.26 40.4273 103.26 39.9654ZM90.7872 38.9835L90.825 38.6654C90.9654 37.642 91.4541 36.7818 92.2831 36.1041C93.1013 35.432 94.149 35.0863 95.3857 35.0863C96.563 35.0863 97.5567 35.4375 98.3424 36.1262C99.1336 36.8205 99.5899 37.6779 99.7088 38.6709L99.7412 38.9835H90.7872Z" fill="white"></path><path d="M83.4534 32.1821C82.5191 30.5474 81.1852 29.2585 79.4705 28.354C77.7505 27.4551 75.7172 26.9932 73.4274 26.9932H65.7885V48.9243H73.4274C75.7226 48.9243 77.7559 48.4624 79.4705 47.5579C81.1852 46.659 82.5191 45.3673 83.4534 43.7299C84.3877 42.0841 84.8575 40.1452 84.8575 37.9573C84.8575 35.7723 84.3877 33.825 83.4534 32.1821ZM80.0538 41.8601C79.4354 42.9775 78.5579 43.8543 77.4292 44.4656C76.3167 45.0769 75.0043 45.3867 73.5354 45.3867H69.5418V30.5225H73.5354C74.9773 30.5225 76.287 30.8268 77.413 31.438C78.5471 32.0438 79.4354 32.9261 80.0538 34.0546C80.6667 35.161 80.9773 36.472 80.9773 37.949C80.9746 39.4371 80.6667 40.7509 80.0538 41.8601Z" fill="white"></path><path d="M132.959 38.0208V48.9242H129.211V39.3181C129.211 37.9351 128.89 36.884 128.25 36.1953C127.605 35.5121 126.743 35.1609 125.69 35.1609C124.54 35.1609 123.609 35.573 122.906 36.3779C122.212 37.1772 121.864 38.3389 121.864 39.8298V48.9269H118.116V39.3208C118.116 37.9434 117.795 36.8923 117.166 36.2036C116.537 35.5149 115.675 35.1636 114.595 35.1636C113.483 35.1636 112.567 35.5757 111.86 36.3806C111.16 37.1745 110.801 38.3693 110.801 39.9376V48.9269H107.056V32.4447H110.321L110.601 35.833L111.036 35.1055C111.676 34.0158 112.403 33.233 113.18 32.7821C113.971 32.3313 114.943 32.1045 116.067 32.1045C117.314 32.1045 118.427 32.3811 119.369 32.9315C120.303 33.4764 120.992 34.2979 121.413 35.3711L121.645 35.9657L121.905 35.3821C122.399 34.3034 123.109 33.4764 124.008 32.9315C124.926 32.3811 125.993 32.1045 127.192 32.1045C128.879 32.1045 130.278 32.6162 131.347 33.6313C132.417 34.6381 132.959 36.1151 132.959 38.0208Z" fill="white"></path><path d="M149.223 33.5871C148.529 33.0975 147.743 32.7269 146.874 32.4752C146.007 32.2318 145.056 32.1018 144.025 32.1018C142.713 32.1018 141.433 32.4144 140.223 33.0229C139.094 33.5954 138.125 34.4446 137.326 35.5399L139.767 37.3847C140.212 36.7182 140.798 36.1788 141.498 35.7833C142.283 35.338 143.126 35.1167 143.993 35.1167C145.013 35.1167 145.858 35.3877 146.504 35.9271C147.176 36.4775 147.514 37.1828 147.514 38.0154V38.9309L143.636 39.0747C141.527 39.1466 139.764 39.6362 138.39 40.5296C137.045 41.412 136.389 42.7092 136.389 44.4849C136.389 45.547 136.664 46.4072 137.234 47.1181C137.798 47.8345 138.541 48.3793 139.432 48.7251C140.336 49.0764 141.276 49.2534 142.216 49.2534C144.387 49.2534 146.11 48.537 147.346 47.1319L147.695 46.7364L148.2 48.9159H151.264V38.3667C151.262 36.1539 150.573 34.5497 149.223 33.5871ZM147.481 42.7285C147.481 43.8073 147.063 44.7283 146.234 45.4724C145.421 46.2053 144.325 46.5787 142.991 46.5787C142.194 46.5787 141.5 46.374 140.925 45.9675C140.312 45.5443 140.002 44.933 140.002 44.1558C140.002 43.3564 140.372 42.7009 141.093 42.2002C141.792 41.7328 142.834 41.4839 144.19 41.4617L147.481 41.3124V42.7285Z" fill="white"></path><path d="M170.406 38.0209V48.9242H166.658V39.5947C166.658 38.1011 166.321 36.9726 165.659 36.2507C164.998 35.5288 164.101 35.1609 163.002 35.1609C161.852 35.1609 160.915 35.5565 160.218 36.3392C159.519 37.122 159.176 38.3003 159.176 39.9349V48.9242H155.428V32.442H158.693L158.979 35.8524L159.408 35.0973C160.032 34.0131 160.775 33.2358 161.633 32.785C162.5 32.3286 163.488 32.1018 164.574 32.1018C166.283 32.1018 167.703 32.619 168.783 33.6452C169.858 34.6658 170.406 36.1373 170.406 38.0209Z" fill="white"></path><path d="M186.3 24.6089V34.7101L185.827 34.1929C185.317 33.6314 184.65 33.1363 183.843 32.7214C183.035 32.3037 182.187 32.1046 181.272 32.1046C179.765 32.1046 178.396 32.489 177.203 33.2386C176.009 33.9882 175.075 35.0392 174.424 36.3503C173.763 37.6669 173.425 39.1328 173.425 40.7177C173.425 42.25 173.752 43.6966 174.403 45.0022C175.048 46.3021 175.955 47.3532 177.087 48.1138C178.226 48.8745 179.533 49.2645 180.964 49.2645C183.019 49.2645 184.755 48.4928 186.13 46.9687L186.483 46.5732L186.983 48.9242H190.048V24.6089H186.3ZM185.946 43.6054C185.49 44.4434 184.877 45.0879 184.129 45.5221C183.392 45.9509 182.582 46.1721 181.736 46.1721C180.859 46.1721 180.027 45.9343 179.268 45.4668C178.515 45.0104 177.891 44.3494 177.424 43.5113C176.973 42.6732 176.741 41.7217 176.741 40.6818C176.741 39.592 176.973 38.6211 177.424 37.7969C177.886 36.9809 178.504 36.3365 179.252 35.8911C180.011 35.4458 180.848 35.2246 181.736 35.2246C182.603 35.2246 183.424 35.4348 184.161 35.8524C184.909 36.2811 185.517 36.9145 185.962 37.736C186.408 38.552 186.635 39.5422 186.635 40.6818C186.637 41.7937 186.402 42.7783 185.946 43.6054Z" fill="white"></path><path d="M66.6245 61.2644V54.5669H69.3035C70.0128 54.5669 70.5606 54.7189 70.947 55.0229C71.3333 55.3269 71.5265 55.7576 71.5265 56.3149C71.5265 56.7329 71.3998 57.0812 71.1465 57.3599C70.8995 57.6386 70.5543 57.8222 70.111 57.9109V57.7779C70.605 57.8349 70.9913 58.0059 71.27 58.2909C71.555 58.5696 71.6975 58.9464 71.6975 59.4214C71.6975 60.0167 71.498 60.4727 71.099 60.7894C70.7063 61.1061 70.149 61.2644 69.427 61.2644H66.6245ZM67.394 60.6279H69.351C69.8323 60.6279 70.2123 60.5361 70.491 60.3524C70.776 60.1624 70.9185 59.8489 70.9185 59.4119C70.9185 58.9686 70.776 58.6551 70.491 58.4714C70.2123 58.2814 69.8323 58.1864 69.351 58.1864H67.394V60.6279ZM67.394 57.5594H69.1895C69.7088 57.5594 70.0983 57.4581 70.358 57.2554C70.6176 57.0527 70.7475 56.7614 70.7475 56.3814C70.7475 55.9887 70.6176 55.6942 70.358 55.4979C70.0983 55.2952 69.7088 55.1939 69.1895 55.1939H67.394V57.5594ZM74.6046 61.2644V58.1389L74.7756 58.6709L72.0016 54.5669H72.9136L75.1176 57.9014H74.9181L77.1126 54.5669H77.9866L75.2221 58.6709L75.3931 58.1389V61.2644H74.6046ZM80.5342 61.2644L83.4887 54.5669H84.1727L87.1747 61.2644H86.3577L85.5217 59.3549L85.8732 59.5544H81.7787L82.1587 59.3549L81.3417 61.2644H80.5342ZM83.8212 55.4694L82.2822 59.0794L82.0542 58.9084H85.5882L85.4172 59.0794L83.8402 55.4694H83.8212ZM88.185 61.2644V54.5669H88.9735V61.2644H88.185ZM90.6435 61.2644V54.5669H93.3795C94.0825 54.5669 94.6272 54.7347 95.0135 55.0704C95.3998 55.3997 95.593 55.8621 95.593 56.4574C95.593 56.8501 95.5043 57.1857 95.327 57.4644C95.156 57.7367 94.9122 57.9457 94.5955 58.0914C94.2852 58.2371 93.921 58.3099 93.503 58.3099L93.674 58.1864H93.864C94.1237 58.1864 94.3548 58.2497 94.5575 58.3764C94.7665 58.5031 94.9312 58.7152 95.0515 59.0129L96.0015 61.2644H95.137L94.225 59.0509C94.1173 58.7659 93.9558 58.5822 93.7405 58.4999C93.5252 58.4112 93.256 58.3669 92.933 58.3669H91.432V61.2644H90.6435ZM91.432 57.7494H93.2655C93.7722 57.7494 94.1553 57.6417 94.415 57.4264C94.681 57.2047 94.814 56.8881 94.814 56.4764C94.814 56.0647 94.681 55.7512 94.415 55.5359C94.1553 55.3206 93.7722 55.2129 93.2655 55.2129H91.432V57.7494ZM97.2211 61.2644V54.5669H101.496V55.2129H97.9906V57.5404H101.287V58.1959H97.9906V60.6089H101.496V61.2644H97.2211ZM104.85 61.2644L101.934 54.5669H102.779L105.373 60.6374H105.078L107.691 54.5669H108.508L105.572 61.2644H104.85Z" fill="white"></path></svg>